<?xml version="1.0" encoding="UTF-8"?>
<svg version="1.1" xmlns="http://www.w3.org/2000/svg" width="622" height="401">
<path d="M0 0 C-2.297221 1.74271938 -4.59866729 3.39911152 -7 5 C-7.33 5.99 -7.66 6.98 -8 8 C-7.4225 7.319375 -6.845 6.63875 -6.25 5.9375 C-4 4 -4 4 -2.125 4 C0.84805101 5.39908283 3.39917476 6.9902714 6 9 C6 9.99 6 10.98 6 12 C6.63550781 11.78730469 7.27101562 11.57460937 7.92578125 11.35546875 C12.3438496 10.84461205 15.96426981 12.06878736 20.1875 13.3125 C21.00669922 13.53873047 21.82589844 13.76496094 22.66992188 13.99804688 C28.72829961 15.72829961 28.72829961 15.72829961 31 18 C31 17.67 31 17.34 31 17 C36.28 16.67 41.56 16.34 47 16 C47.495 17.485 47.495 17.485 48 19 C49.31798408 19.69652006 50.65537225 20.35641749 52 21 C53.88240976 22.46440005 55.73462704 23.96806838 57.5625 25.5 C60.32911711 27.81239639 62.99876548 29.99917699 66 32 C66.75390625 34.765625 66.75390625 34.765625 66 38 C63.26893452 40.40923912 60.13123371 42.02680374 56.9375 43.75 C55.09198765 44.79768291 53.24825104 45.84849961 51.40625 46.90234375 C50.4884375 47.4216748 49.570625 47.94100586 48.625 48.47607422 C44.95710293 50.60544676 41.44132357 52.92552888 37.9375 55.3125 C36.74089391 56.11980426 35.54427959 56.92709631 34.34765625 57.734375 C33.7870752 58.11400391 33.22649414 58.49363281 32.64892578 58.88476562 C30.06948175 60.62934666 27.47981972 62.35601358 24.875 64.0625 C24.04742187 64.61035156 23.21984375 65.15820312 22.3671875 65.72265625 C19.87291055 67.06857797 17.76782391 67.48811113 15 68 C12.98745218 69.31431695 10.98689731 70.64721885 9 72 C6.81640625 72.625 6.81640625 72.625 5 73 C4.54786133 72.22624023 4.09572266 71.45248047 3.62988281 70.65527344 C1.89363724 67.6852639 0.15619207 64.71596124 -1.58175659 61.74694824 C-2.74908719 59.75156032 -3.91472049 57.75518724 -5.08032227 55.75878906 C-8.57445502 49.78257575 -12.08276513 43.82186139 -15.73046875 37.9375 C-16.5517627 36.6057373 -16.5517627 36.6057373 -17.38964844 35.24707031 C-18.38860607 33.63550271 -19.39768548 32.03014492 -20.41894531 30.43261719 C-24.61706729 23.6389633 -26.41161305 17.02645444 -26 9 C-24.02 8.34 -22.04 7.68 -20 7 C-20 6.34 -20 5.68 -20 5 C-17.2328864 3.96794141 -14.46208746 2.94909171 -11.6875 1.9375 C-10.90181641 1.64294922 -10.11613281 1.34839844 -9.30664062 1.04492188 C-8.54931641 0.77099609 -7.79199219 0.49707031 -7.01171875 0.21484375 C-6.31522217 -0.04176025 -5.61872559 -0.29836426 -4.90112305 -0.56274414 C-3 -1 -3 -1 0 0 Z M-15 5 C-11 6 -11 6 -11 6 Z M7 15 C7 17.97 7 20.94 7 24 C7.33 24 7.66 24 8 24 C8 21.03 8 18.06 8 15 C7.67 15 7.34 15 7 15 Z M-20 17 C-20 17.66 -20 18.32 -20 19 C-20.99 19.33 -21.98 19.66 -23 20 C-23 20.66 -23 21.32 -23 22 C-22.34 22 -21.68 22 -21 22 C-21 21.34 -21 20.68 -21 20 C-20.01 19.67 -19.02 19.34 -18 19 C-18.66 18.34 -19.32 17.68 -20 17 Z M26 19 C21.38 23.62 16.76 28.24 12 33 C12.33 33.66 12.66 34.32 13 35 C17.62 30.38 22.24 25.76 27 21 C26.67 20.34 26.34 19.68 26 19 Z M-21 22 C-20.67 22.66 -20.34 23.32 -20 24 C-19.34 23.67 -18.68 23.34 -18 23 C-18.99 22.67 -19.98 22.34 -21 22 Z M36 24 C36.66 25.32 37.32 26.64 38 28 C38 27.01 38 26.02 38 25 C37.34 24.67 36.68 24.34 36 24 Z M48 24 C48 26.31 48 28.62 48 31 C48.33 31 48.66 31 49 31 C49 28.69 49 26.38 49 24 C48.67 24 48.34 24 48 24 Z M8 25 C8 28.3 8 31.6 8 35 C8.33 35 8.66 35 9 35 C9 31.7 9 28.4 9 25 C8.67 25 8.34 25 8 25 Z M-14 26 C-11.47043472 29.0916909 -8.77545388 29.90931332 -5 31 C-7.52956528 27.9083091 -10.22454612 27.09068668 -14 26 Z M-5 31 C-2.47043472 34.0916909 0.22454612 34.90931332 4 36 C1.47043472 32.9083091 -1.22454612 32.09068668 -5 31 Z M42 31 C43.36983503 34.16115776 43.9890638 34.9927092 47 37 C45.63016497 33.83884224 45.0109362 33.0072908 42 31 Z M49 32 C49 33.65 49 35.3 49 37 C48.01 37.495 48.01 37.495 47 38 C48.485 38.99 48.485 38.99 50 40 C50 37.36 50 34.72 50 32 C49.67 32 49.34 32 49 32 Z M9 35 C9 35.66 9 36.32 9 37 C8.01 37.33 7.02 37.66 6 38 C6.66 38 7.32 38 8 38 C8 38.66 8 39.32 8 40 C11.465 39.505 11.465 39.505 15 39 C15 38.67 15 38.34 15 38 C13.35 38 11.7 38 10 38 C9.67 37.01 9.34 36.02 9 35 Z M53.3125 39.4375 C51.82169922 40.14712891 51.82169922 40.14712891 50.30078125 40.87109375 C49.54152344 41.24363281 48.78226562 41.61617187 48 42 C48.33 42.99 48.66 43.98 49 45 C53.29 42.69 57.58 40.38 62 38 C58.08428299 36.694761 56.96107003 37.67760152 53.3125 39.4375 Z M15 39 C15 39.33 15 39.66 15 40 C21.71162938 40.88021369 28.23405981 41.11381955 35 41 C35 40.67 35 40.34 35 40 C28.28837062 39.11978631 21.76594019 38.88618045 15 39 Z M8 41 C8 45.29 8 49.58 8 54 C8.33 54 8.66 54 9 54 C9 49.71 9 45.42 9 41 C8.67 41 8.34 41 8 41 Z M35 41 C35 41.33 35 41.66 35 42 C38.63 42 42.26 42 46 42 C46 41.67 46 41.34 46 41 C42.37 41 38.74 41 35 41 Z M7 58 C7 61.3 7 64.6 7 68 C7.33 68 7.66 68 8 68 C8 64.7 8 61.4 8 58 C7.67 58 7.34 58 7 58 Z " fill="#978EFC" transform="translate(127,167)"/>
<path d="M0 0 C6.36910907 0.41667069 10.73787707 2.73421793 16.1875 5.9375 C17.76403429 6.84295065 19.34084757 7.74791574 20.91796875 8.65234375 C21.60656982 9.05445068 22.2951709 9.45655762 23.00463867 9.87084961 C24.97283923 10.98463005 26.96874696 12.00668401 29 13 C29 13.66 29 14.32 29 15 C29.94101563 14.81695312 30.88203125 14.63390625 31.8515625 14.4453125 C36.756707 13.74598963 41.47722572 14.32922776 46.375 14.875 C47.28894531 14.96652344 48.20289063 15.05804688 49.14453125 15.15234375 C55.86090635 15.86090635 55.86090635 15.86090635 57 17 C58.84891946 17.23363881 60.70488031 17.41303635 62.5625 17.5625 C63.57441406 17.64628906 64.58632812 17.73007813 65.62890625 17.81640625 C66.80259766 17.90728516 66.80259766 17.90728516 68 18 C66.66376623 22.00870131 64.04706089 23.36340635 60.6875 25.625 C60.10548828 26.03234375 59.52347656 26.4396875 58.92382812 26.859375 C56.030961 28.83818785 53.51026618 30.49729521 50 31 C50 31.66 50 32.32 50 33 C47.82426807 34.710781 45.6493041 36.30540984 43.375 37.875 C42.75753906 38.30941406 42.14007813 38.74382812 41.50390625 39.19140625 C39.67685793 40.47226329 37.83893589 41.73629528 36 43 C34.41058594 44.11761719 34.41058594 44.11761719 32.7890625 45.2578125 C30.32772439 46.795287 28.76044015 47.40863531 26 48 C25.29822632 46.80008423 25.29822632 46.80008423 24.58227539 45.57592773 C22.80432187 42.53684985 21.02550884 39.49827774 19.24630737 36.45993042 C18.06776813 34.44650014 16.89043775 32.43236623 15.71313477 30.41821289 C10.85321679 22.1089499 10.85321679 22.1089499 5.8671875 13.875 C5.44429443 13.18736572 5.02140137 12.49973145 4.58569336 11.79125977 C3.52176862 10.0735518 2.44689251 8.36264008 1.37109375 6.65234375 C0 4 0 4 0 0 Z M29 16 C29 20.29 29 24.58 29 29 C29.33 29 29.66 29 30 29 C30 24.71 30 20.42 30 16 C29.67 16 29.34 16 29 16 Z M28 33 C28 36.3 28 39.6 28 43 C28.33 43 28.66 43 29 43 C29 39.7 29 36.4 29 33 C28.67 33 28.34 33 28 33 Z " fill="#9289FC" transform="translate(106,192)"/>
<path d="M0 0 C1.42022461 -0.04350586 1.42022461 -0.04350586 2.86914062 -0.08789062 C8.70117434 -0.14079812 12.2577452 0.28077924 16.8125 4.3125 C19.2803316 8.01424739 19.49322732 11.01743475 18.8125 15.3125 C15.8125 20.8125 15.8125 20.8125 12.8125 22.3125 C14.16821097 26.37963292 16.20923943 29.39900139 18.7890625 32.76171875 C19.8125 34.3125 19.8125 34.3125 19.8125 36.3125 C14.86751157 37.28383701 14.86751157 37.28383701 11.8125 36.3125 C9.51757882 33.63147677 7.69414149 30.78872349 5.77734375 27.828125 C4.06253615 25.23804932 4.06253615 25.23804932 1.75390625 24.359375 C-0.35958196 24.04462587 -0.35958196 24.04462587 -3.1875 24.3125 C-3.17589844 25.09496094 -3.16429687 25.87742188 -3.15234375 26.68359375 C-3.14332031 27.69550781 -3.13429688 28.70742187 -3.125 29.75 C-3.11339844 30.75933594 -3.10179687 31.76867187 -3.08984375 32.80859375 C-3.1875 35.3125 -3.1875 35.3125 -4.1875 36.3125 C-7.1875 36.4375 -7.1875 36.4375 -10.1875 36.3125 C-12.0730253 34.4269747 -11.31996689 31.73481169 -11.32421875 29.23046875 C-11.32035156 28.43253906 -11.31648438 27.63460937 -11.3125 26.8125 C-11.31636719 26.01457031 -11.32023437 25.21664062 -11.32421875 24.39453125 C-11.31410767 18.43910767 -11.31410767 18.43910767 -10.1875 17.3125 C-7.20472267 17.10091382 -4.23658798 16.93608295 -1.25 16.8125 C0.40512399 16.74369577 2.06009071 16.67096293 3.71484375 16.59375 C4.82073853 16.54831055 4.82073853 16.54831055 5.94897461 16.50195312 C7.90403702 16.41442135 7.90403702 16.41442135 9.8125 15.3125 C10.65561576 13.44066413 10.65561576 13.44066413 10.8125 11.3125 C9.21541408 8.16045678 9.21541408 8.16045678 6.85717773 7.89599609 C6.07802002 7.87617676 5.2988623 7.85635742 4.49609375 7.8359375 C3.64982422 7.805 2.80355469 7.7740625 1.93164062 7.7421875 C0.60422852 7.71511719 0.60422852 7.71511719 -0.75 7.6875 C-2.50141908 7.63669742 -4.25273652 7.58221055 -6.00390625 7.5234375 C-7.17095093 7.49709229 -7.17095093 7.49709229 -8.36157227 7.47021484 C-10.1875 7.3125 -10.1875 7.3125 -11.1875 6.3125 C-11.3125 3.8125 -11.3125 3.8125 -11.1875 1.3125 C-8.83702324 -1.03797676 -3.15212331 0.03154226 0 0 Z " fill="#A49CFC" transform="translate(489.1875,184.6875)"/>
<path d="M0 0 C6.36910907 0.41667069 10.73787707 2.73421793 16.1875 5.9375 C17.76403429 6.84295065 19.34084757 7.74791574 20.91796875 8.65234375 C21.60656982 9.05445068 22.2951709 9.45655762 23.00463867 9.87084961 C24.97283923 10.98463005 26.96874696 12.00668401 29 13 C29 13.66 29 14.32 29 15 C29.66 15 30.32 15 31 15 C31 17.31 31 19.62 31 22 C30.67 22 30.34 22 30 22 C30 26.29 30 30.58 30 35 C29.67 35 29.34 35 29 35 C28.80185739 41.08408472 28.80185739 41.08408472 30 47 C28.02 47.495 28.02 47.495 26 48 C25.29822632 46.80008423 25.29822632 46.80008423 24.58227539 45.57592773 C22.80432187 42.53684985 21.02550884 39.49827774 19.24630737 36.45993042 C18.06776813 34.44650014 16.89043775 32.43236623 15.71313477 30.41821289 C10.85321679 22.1089499 10.85321679 22.1089499 5.8671875 13.875 C5.44429443 13.18736572 5.02140137 12.49973145 4.58569336 11.79125977 C3.52176862 10.0735518 2.44689251 8.36264008 1.37109375 6.65234375 C0 4 0 4 0 0 Z " fill="#9990FC" transform="translate(106,192)"/>
<path d="M0 0 C8 0 8 0 9.70263672 1.26928711 C10.02506348 1.8494458 10.34749023 2.42960449 10.6796875 3.02734375 C11.2365625 3.96803711 11.2365625 3.96803711 11.8046875 4.92773438 C12.33449219 5.92256836 12.33449219 5.92256836 12.875 6.9375 C15.19784919 11.68592349 15.19784919 11.68592349 19 15 C19.26425781 14.28457031 19.52851563 13.56914062 19.80078125 12.83203125 C21.81974685 8.06411575 24.42006186 3.75893505 28 0 C31.9375 -0.625 31.9375 -0.625 35 0 C34.39067409 2.93308804 33.48721067 5.11593027 31.890625 7.64453125 C31.46523438 8.32193359 31.03984375 8.99933594 30.6015625 9.69726562 C30.15554688 10.39529297 29.70953125 11.09332031 29.25 11.8125 C28.81945312 12.49892578 28.38890625 13.18535156 27.9453125 13.89257812 C26.65007949 15.94207108 25.33097194 17.97356082 24 20 C23.55849609 20.68368652 23.11699219 21.36737305 22.66210938 22.07177734 C21.52112309 23.77085475 20.2682536 25.39368542 19 27 C18.01 27 17.02 27 16 27 C13.03149889 23.18578824 10.59513086 19.08414037 8 15 C7.67 21.93 7.34 28.86 7 36 C4.69 36 2.38 36 0 36 C0 24.12 0 12.24 0 0 Z " fill="#9E96FC" transform="translate(289,185)"/>
<path d="M0 0 C0.33 0.99 0.66 1.98 1 3 C2.31798408 3.69652006 3.65537225 4.35641749 5 5 C6.88240976 6.46440005 8.73462704 7.96806838 10.5625 9.5 C13.32911711 11.81239639 15.99876548 13.99917699 19 16 C19.75390625 18.765625 19.75390625 18.765625 19 22 C16.26893452 24.40923912 13.13123371 26.02680374 9.9375 27.75 C8.09198765 28.79768291 6.24825104 29.84849961 4.40625 30.90234375 C3.4884375 31.4216748 2.570625 31.94100586 1.625 32.47607422 C-2.04289565 34.60544593 -5.55868621 36.92551528 -9.0625 39.3125 C-10.25519827 40.11720242 -11.4479063 40.92189037 -12.640625 41.7265625 C-13.20072266 42.10586914 -13.76082031 42.48517578 -14.33789062 42.87597656 C-16.98401349 44.66545213 -19.64082918 46.43637897 -22.3125 48.1875 C-23.17488281 48.75855469 -24.03726563 49.32960937 -24.92578125 49.91796875 C-25.95251953 50.45357422 -25.95251953 50.45357422 -27 51 C-27.66 50.67 -28.32 50.34 -29 50 C-27.824375 49.071875 -27.824375 49.071875 -26.625 48.125 C-24.03162353 46.10141339 -24.03162353 46.10141339 -22 44 C-19.441321 41.9530568 -16.92040283 40.46020142 -14 39 C-13.34 38.34 -12.68 37.68 -12 37 C-9.441321 34.9530568 -6.92040283 33.46020142 -4 32 C-1.83656989 29.96731398 -1.83656989 29.96731398 0 27 C-3.63 27 -7.26 27 -11 27 C-11.33 26.01 -11.66 25.02 -12 24 C-8.04 24 -4.08 24 0 24 C0.33 23.34 0.66 22.68 1 22 C0.67 21.67 0.34 21.34 0 21 C-16 3.19047619 -16 3.19047619 -16 1 C-14.27111445 0.83044205 -12.54187557 0.66448486 -10.8125 0.5 C-9.84957031 0.4071875 -8.88664062 0.314375 -7.89453125 0.21875 C-5.24812333 0.01875156 -2.65239135 -0.03879183 0 0 Z M1 8 C1 10.31 1 12.62 1 15 C1.33 15 1.66 15 2 15 C2 12.69 2 10.38 2 8 C1.67 8 1.34 8 1 8 Z M6.3125 23.4375 C4.82169922 24.14712891 4.82169922 24.14712891 3.30078125 24.87109375 C2.54152344 25.24363281 1.78226563 25.61617187 1 26 C1.33 26.99 1.66 27.98 2 29 C6.29 26.69 10.58 24.38 15 22 C11.08428299 20.694761 9.96107003 21.67760152 6.3125 23.4375 Z " fill="#A39BFC" transform="translate(174,183)"/>
<path d="M0 0 C16.73085398 -0.95302333 31.6907855 1.82823476 46 11 C45.67 12.98 45.34 14.96 45 17 C34.97532766 18.46248535 26.31878625 18.10019344 16.5 15.4375 C15.59362793 15.19821777 14.68725586 14.95893555 13.75341797 14.71240234 C7.36324937 12.84122208 2.32766119 9.96891243 -3 6 C-2 4 -1 2 0 0 Z " fill="#9A91FC" transform="translate(129,165)"/>
<path d="M0 0 C3.13099116 -0.48300848 4.98740665 -0.74750056 8 0 C10.86725103 2.5450454 12.80909835 5.60349873 14.875 8.8125 C15.4421875 9.64587891 16.009375 10.47925781 16.59375 11.33789062 C18.08851451 13.54284538 19.54981389 15.7655966 21 18 C21.66 18.99 22.32 19.98 23 21 C23.33 14.07 23.66 7.14 24 0 C26.31 0 28.62 0 31 0 C31 11.88 31 23.76 31 36 C25 36 25 36 23.0859375 34.41015625 C22.52132813 33.63542969 21.95671875 32.86070312 21.375 32.0625 C20.70597656 31.16015625 20.03695313 30.2578125 19.34765625 29.328125 C18.56335522 28.21998577 17.78098104 27.11048155 17 26 C15.99897171 24.5987627 14.99765132 23.19773404 13.99609375 21.796875 C11.44559741 18.21343936 8.91857132 14.61442982 6.40869141 11.00244141 C5.46157034 9.65611784 4.49996493 8.31987948 3.52490234 6.99365234 C0 2.19914043 0 2.19914043 0 0 Z " fill="#A199FC" transform="translate(404,185)"/>
<path d="M0 0 C2.8997452 -0.60411358 4.22328225 -0.84142962 7 0 C10.16589015 2.96802201 12.53785893 6.44143674 15 10 C16.0209375 11.43085938 16.0209375 11.43085938 17.0625 12.890625 C18.73059899 15.24479697 20.3683081 17.62044932 22 20 C22.33 13.4 22.66 6.8 23 0 C25.31 0 27.62 0 30 0 C30 11.88 30 23.76 30 36 C28.02 36 26.04 36 24 36 C21.95184818 33.86158009 20.48112504 32.00198037 18.875 29.5625 C18.41561035 28.89887451 17.9562207 28.23524902 17.48291016 27.55151367 C16.49678203 26.12605602 15.5183509 24.69524909 14.546875 23.25976562 C12.95311545 20.9315083 11.31300649 18.6431678 9.65625 16.359375 C8.56226437 14.84392007 7.46850892 13.32829895 6.375 11.8125 C5.85405762 11.09457275 5.33311523 10.37664551 4.79638672 9.63696289 C4.31443848 8.95883545 3.83249023 8.28070801 3.3359375 7.58203125 C2.90845215 6.98624268 2.4809668 6.3904541 2.04052734 5.77661133 C0.9214401 3.8658657 0.43101635 2.16251308 0 0 Z " fill="#A098FC" transform="translate(367,185)"/>
<path d="M0 0 C8.2491177 0.17676681 13.84740844 1.53187936 19.90234375 7.40625 C23.81555441 11.76914501 23.88891694 16.09529316 23.74609375 21.7578125 C23.23250512 26.82848119 21.24004697 29.47962899 17.625 32.9375 C12.59270089 36.56075536 8.94423505 37.45207759 2.75 37.375 C1.60015625 37.36855469 0.4503125 37.36210937 -0.734375 37.35546875 C-3.5 37.1875 -3.5 37.1875 -4.5 36.1875 C-4.625 33.6875 -4.625 33.6875 -4.5 31.1875 C-2.80802581 29.49552581 -0.56640459 29.86092066 1.75 29.6875 C5.40186524 29.41114263 8.94705054 29.10701333 12.5 28.1875 C14.71157754 25.20187032 15.28458304 21.84958836 15.5 18.1875 C14.0500457 13.83763709 13.35115325 11.7549355 9.5 9.1875 C7.30007673 8.91874363 5.08827637 8.74032593 2.875 8.625 C-3.40198366 8.28551634 -3.40198366 8.28551634 -4.5 7.1875 C-4.625 4.1875 -4.625 4.1875 -4.5 1.1875 C-3.5 0.1875 -3.5 0.1875 0 0 Z " fill="#A49CFC" transform="translate(259.5,183.8125)"/>
<path d="M0 0 C2.64 0 5.28 0 8 0 C9.5527142 4.32174026 11.10082832 8.6450906 12.64477539 12.9699707 C13.17021829 14.43981913 13.69689684 15.90922646 14.22485352 17.37817383 C14.98522075 19.4944457 15.74107274 21.61228453 16.49609375 23.73046875 C16.73154404 24.38274948 16.96699432 25.03503021 17.20957947 25.70707703 C18.41872939 29.11377626 19.40104593 32.43309442 20 36 C17.36 36 14.72 36 12 36 C9.64962504 29.8580631 7.30743283 23.71307888 4.97460938 17.56445312 C4.18000829 15.47364906 3.37987466 13.38494828 2.578125 11.296875 C2.22234375 10.35328125 1.8665625 9.4096875 1.5 8.4375 C1.2009375 7.65246094 0.901875 6.86742187 0.59375 6.05859375 C0 4 0 4 0 0 Z " fill="#A39BFC" transform="translate(229,185)"/>
<path d="M0 0 C2.31 0 4.62 0 7 0 C7 11.88 7 23.76 7 36 C4.69 36 2.38 36 0 36 C-1.7329298 34.2670702 -1.12820046 32.03785664 -1.13894653 29.72851562 C-1.1369223 28.99310547 -1.13489807 28.25769531 -1.1328125 27.5 C-1.13376923 26.74912109 -1.13472595 25.99824219 -1.13571167 25.22460938 C-1.13639338 23.63411373 -1.13453972 22.04361533 -1.13037109 20.453125 C-1.12502267 18.01035345 -1.13031634 15.56776579 -1.13671875 13.125 C-1.13605797 11.58333293 -1.1347768 10.04166597 -1.1328125 8.5 C-1.13483673 7.76458984 -1.13686096 7.02917969 -1.13894653 6.27148438 C-1.11495161 1.11495161 -1.11495161 1.11495161 0 0 Z " fill="#A8A0FC" transform="translate(341,185)"/>
<path d="M0 0 C-2.297221 1.74271938 -4.59866729 3.39911152 -7 5 C-8.03429591 6.09355245 -9.03293124 7.22156903 -10 8.375 C-10.51820312 8.99246094 -11.03640625 9.60992187 -11.5703125 10.24609375 C-13.10237597 12.12559238 -14.58306314 14.03203214 -16 16 C-15.01 16.99 -14.02 17.98 -13 19 C-17.75 20.125 -17.75 20.125 -20 19 C-20.99 19.99 -21.98 20.98 -23 22 C-20.525 22.99 -20.525 22.99 -18 24 C-18.99 24.33 -19.98 24.66 -21 25 C-21.33 25.66 -21.66 26.32 -22 27 C-25.61752739 21.33778322 -25.69040043 15.59767367 -26 9 C-24.02 8.34 -22.04 7.68 -20 7 C-20 6.34 -20 5.68 -20 5 C-17.2328864 3.96794141 -14.46208746 2.94909171 -11.6875 1.9375 C-10.90181641 1.64294922 -10.11613281 1.34839844 -9.30664062 1.04492188 C-8.54931641 0.77099609 -7.79199219 0.49707031 -7.01171875 0.21484375 C-6.31522217 -0.04176025 -5.61872559 -0.29836426 -4.90112305 -0.56274414 C-3 -1 -3 -1 0 0 Z M-15 5 C-11 6 -11 6 -11 6 Z " fill="#A9A1FC" transform="translate(127,167)"/>
<path d="M0 0 C0.66 0 1.32 0 2 0 C4.25950392 4.66022684 4.94856013 9.0311892 3.33984375 14.06616211 C2.45262562 16.22278847 1.4986722 18.33026311 0.5 20.4375 C0.16613281 21.16904297 -0.16773438 21.90058594 -0.51171875 22.65429688 C-1.3294393 24.44160035 -2.16310347 26.22159487 -3 28 C-5.31 28 -7.62 28 -10 28 C-11 26 -11 26 -10.21142578 23.49389648 C-9.7936084 22.46337158 -9.37579102 21.43284668 -8.9453125 20.37109375 C-8.49542969 19.25412109 -8.04554688 18.13714844 -7.58203125 16.98632812 C-7.10121094 15.81521484 -6.62039062 14.64410156 -6.125 13.4375 C-5.65191406 12.26251953 -5.17882812 11.08753906 -4.69140625 9.87695312 C-1.15374453 1.15374453 -1.15374453 1.15374453 0 0 Z " fill="#A7A0FC" transform="translate(225,193)"/>
<path d="M0 0 C4.55752512 2.27876256 5.72161562 3.50861534 8 8 C8.48300345 11.29112983 8.42554259 14.49407195 8.3125 17.8125 C8.30283203 18.68326172 8.29316406 19.55402344 8.28320312 20.45117188 C8.16883061 26.83116939 8.16883061 26.83116939 7 28 C4.69 28 2.38 28 0 28 C0 18.76 0 9.52 0 0 Z " fill="#ACA4FC" transform="translate(403,193)"/>
<path d="M0 0 C8.91 0 17.82 0 27 0 C27 2.31 27 4.62 27 7 C18.09 7 9.18 7 0 7 C0 4.69 0 2.38 0 0 Z " fill="#A69EFC" transform="translate(443,214)"/>
<path d="M0 0 C8.91 0 17.82 0 27 0 C27 2.31 27 4.62 27 7 C18.09 7 9.18 7 0 7 C0 4.69 0 2.38 0 0 Z " fill="#A69EFC" transform="translate(443,185)"/>
<path d="M0 0 C0.99 0 1.98 0 3 0 C3.02886751 4.14581887 3.04675327 8.29161216 3.0625 12.4375 C3.07087891 13.62150391 3.07925781 14.80550781 3.08789062 16.02539062 C3.09111328 17.15009766 3.09433594 18.27480469 3.09765625 19.43359375 C3.10289307 20.47572021 3.10812988 21.51784668 3.11352539 22.59155273 C3 25 3 25 2 26 C-1 26.125 -1 26.125 -4 26 C-6.3101504 23.6898496 -5.36799014 17.81136574 -5.39379883 14.59399414 C-5.29085109 8.38237671 -4.29590107 4.69551977 0 0 Z " fill="#9C93FC" transform="translate(322,195)"/>
<path d="M0 0 C0.33 0 0.66 0 1 0 C1 1.98 1 3.96 1 6 C0.34 6.33 -0.32 6.66 -1 7 C-0.67 7.33 -0.34 7.66 0 8 C0.98742187 7.4946875 1.97484375 6.989375 2.9921875 6.46875 C4.28635176 5.81228987 5.58062845 5.15605133 6.875 4.5 C7.52597656 4.16613281 8.17695313 3.83226562 8.84765625 3.48828125 C13.7734375 1 13.7734375 1 16 1 C16 1.66 16 2.32 16 3 C14.40209961 4.16992188 14.40209961 4.16992188 12.15234375 5.46875 C11.32661865 5.95255127 10.50089355 6.43635254 9.65014648 6.93481445 C8.30738647 7.7095813 8.30738647 7.7095813 6.9375 8.5 C0.4940252 12.28587707 -5.87170003 16.12446147 -12.0625 20.3125 C-12.6615918 20.71637939 -13.26068359 21.12025879 -13.87792969 21.53637695 C-15.03177698 22.31546359 -16.18511765 23.09530119 -17.33789062 23.87597656 C-19.98401349 25.66545213 -22.64082918 27.43637897 -25.3125 29.1875 C-26.17488281 29.75855469 -27.03726563 30.32960937 -27.92578125 30.91796875 C-28.95251953 31.45357422 -28.95251953 31.45357422 -30 32 C-30.66 31.67 -31.32 31.34 -32 31 C-31.21625 30.38125 -30.4325 29.7625 -29.625 29.125 C-27.03162353 27.10141339 -27.03162353 27.10141339 -25 25 C-22.441321 22.9530568 -19.92040283 21.46020142 -17 20 C-16.34 19.34 -15.68 18.68 -15 18 C-12.441321 15.9530568 -9.92040283 14.46020142 -7 13 C-4.83656989 10.96731398 -4.83656989 10.96731398 -3 8 C-6.63 8 -10.26 8 -14 8 C-14.33 7.01 -14.66 6.02 -15 5 C-11.04 5 -7.08 5 -3 5 C-2.67 4.34 -2.34 3.68 -2 3 C-1.67 3.33 -1.34 3.66 -1 4 C-0.67 2.68 -0.34 1.36 0 0 Z " fill="#B5AEFC" transform="translate(177,202)"/>
<path d="M0 0 C3.24181857 1.08060619 4.39867623 2.15084913 6.19726562 5.01660156 C7.85813231 9.12027583 7.40333725 13.52258109 7.25 17.875 C7.23195313 18.84953125 7.21390625 19.8240625 7.1953125 20.828125 C7.14841734 23.21977807 7.08280907 25.60936597 7 28 C4.69 28 2.38 28 0 28 C0 18.76 0 9.52 0 0 Z " fill="#8A80FC" transform="translate(366,193)"/>
<path d="M0 0 C3.97915159 -0.02886984 7.95827653 -0.04675406 11.9375 -0.0625 C13.07380859 -0.07087891 14.21011719 -0.07925781 15.38085938 -0.08789062 C16.46044922 -0.09111328 17.54003906 -0.09433594 18.65234375 -0.09765625 C20.15269165 -0.10551147 20.15269165 -0.10551147 21.68334961 -0.11352539 C24 0 24 0 25 1 C25.125 3.5 25.125 3.5 25 6 C24 7 24 7 21.68334961 7.11352539 C20.68311768 7.10828857 19.68288574 7.10305176 18.65234375 7.09765625 C17.57275391 7.09443359 16.49316406 7.09121094 15.38085938 7.08789062 C14.24455078 7.07951172 13.10824219 7.07113281 11.9375 7.0625 C10.79732422 7.05798828 9.65714844 7.05347656 8.48242188 7.04882812 C5.65489649 7.03699747 2.8274736 7.0205141 0 7 C0 4.69 0 2.38 0 0 Z " fill="#A9A2FC" transform="translate(443,199)"/>
<path d="M0 0 C4.95 0 9.9 0 15 0 C15.22786458 2.05078125 15.45572917 4.1015625 15.68359375 6.15234375 C15.81886614 8.01140229 15.81886614 8.01140229 17 9 C17.07205511 10.68608966 17.08386068 12.37500659 17.0625 14.0625 C17.05347656 14.98160156 17.04445312 15.90070313 17.03515625 16.84765625 C17.02355469 17.55792969 17.01195312 18.26820313 17 19 C12.2727 15.30037391 8.38466458 11.28827892 4.5625 6.6875 C4.11342285 6.14770508 3.6643457 5.60791016 3.20166016 5.05175781 C0 1.13930677 0 1.13930677 0 0 Z " fill="#978EFC" transform="translate(158,184)"/>
<path d="M0 0 C3.99881788 0.61520275 6.80358226 2.60268669 10 5 C10 5.66 10 6.32 10 7 C8.27473958 7.71614583 6.54947917 8.43229167 4.82421875 9.1484375 C2.73466068 10.06806692 2.73466068 10.06806692 0 12 C-2.5 12.8125 -2.5 12.8125 -5 13 C-6.8125 11.5625 -6.8125 11.5625 -8 10 C-7.236875 9.0925 -6.47375 8.185 -5.6875 7.25 C-3.71516893 4.885444 -1.81737966 2.48694058 0 0 Z " fill="#A49CFC" transform="translate(123,171)"/>
<path d="M0 0 C3.65878727 3.56649353 7.0399365 7.26527205 10.3125 11.1875 C10.76689453 11.72052734 11.22128906 12.25355469 11.68945312 12.80273438 C15 16.76045583 15 16.76045583 15 19 C11.32177947 17.38750996 8.46975834 15.10253751 5.375 12.5625 C4.41335937 11.78003906 3.45171875 10.99757812 2.4609375 10.19140625 C0 8 0 8 -2 5 C-1.125 2.3125 -1.125 2.3125 0 0 Z " fill="#B8B2FD" transform="translate(176,177)"/>
<path d="M0 0 C3.24181857 1.08060619 4.39867623 2.15084913 6.19726562 5.01660156 C7.85813231 9.12027583 7.40333725 13.52258109 7.25 17.875 C7.23195313 18.84953125 7.21390625 19.8240625 7.1953125 20.828125 C7.14841734 23.21977807 7.08280907 25.60936597 7 28 C4.69 28 2.38 28 0 28 C0 18.76 0 9.52 0 0 Z M1 4 C1 11.59 1 19.18 1 27 C2.65 27 4.3 27 6 27 C6.08733513 23.91684615 6.14050127 20.83401173 6.1875 17.75 C6.21263672 16.87730469 6.23777344 16.00460938 6.26367188 15.10546875 C6.35397132 10.04948375 6.35397132 10.04948375 4.61328125 5.390625 C3.1025045 3.78236555 3.1025045 3.78236555 1 4 Z " fill="#C4BFFD" transform="translate(366,193)"/>
<path d="M0 0 C0.99 0 1.98 0 3 0 C3.02886751 4.14581887 3.04675327 8.29161216 3.0625 12.4375 C3.07087891 13.62150391 3.07925781 14.80550781 3.08789062 16.02539062 C3.09111328 17.15009766 3.09433594 18.27480469 3.09765625 19.43359375 C3.10289307 20.47572021 3.10812988 21.51784668 3.11352539 22.59155273 C3 25 3 25 2 26 C0.00041636 26.04080783 -2.00045254 26.04254356 -4 26 C-4 25.67 -4 25.34 -4 25 C-2.35 25 -0.7 25 1 25 C0.86149295 21.54133208 0.71295273 18.08316725 0.5625 14.625 C0.52318359 13.64015625 0.48386719 12.6553125 0.44335938 11.640625 C0.38051758 10.22910156 0.38051758 10.22910156 0.31640625 8.7890625 C0.27974854 7.91975098 0.24309082 7.05043945 0.20532227 6.15478516 C0.12598456 3.9516738 0.12598456 3.9516738 -1 2 C-0.67 1.34 -0.34 0.68 0 0 Z " fill="#CBC7FD" transform="translate(322,195)"/>
<path d="M0 0 C0.66 0.66 1.32 1.32 2 2 C1.34 2 0.68 2 0 2 C0.33 2.99 0.66 3.98 1 5 C-2.11672476 7.0338251 -5.24460936 9.04978476 -8.375 11.0625 C-9.70917969 11.93358398 -9.70917969 11.93358398 -11.0703125 12.82226562 C-11.92109375 13.36689453 -12.771875 13.91152344 -13.6484375 14.47265625 C-14.43395996 14.98062744 -15.21948242 15.48859863 -16.02880859 16.01196289 C-16.67930176 16.33801514 -17.32979492 16.66406738 -18 17 C-18.66 16.67 -19.32 16.34 -20 16 C-19.21625 15.38125 -18.4325 14.7625 -17.625 14.125 C-15.03162353 12.10141339 -15.03162353 12.10141339 -13 10 C-10.441321 7.9530568 -7.92040283 6.46020142 -5 5 C-4.34 4.34 -3.68 3.68 -3 3 C-2 2 -1 1 0 0 Z " fill="#D4D1FD" transform="translate(165,217)"/>
<path d="M0 0 C0.99 0.33 1.98 0.66 3 1 C3 5 3 5 1.62304688 6.79931641 C0.99462891 7.39405762 0.36621094 7.98879883 -0.28125 8.6015625 C-0.95800781 9.25640625 -1.63476562 9.91125 -2.33203125 10.5859375 C-3.04746094 11.25882813 -3.76289063 11.93171875 -4.5 12.625 C-5.91050996 13.96689056 -7.31699066 15.3130335 -8.71875 16.6640625 C-9.34716797 17.25654785 -9.97558594 17.8490332 -10.62304688 18.45947266 C-12.22213828 19.90415869 -12.22213828 19.90415869 -12 22 C-13.32 22 -14.64 22 -16 22 C-15.75 20.125 -15.75 20.125 -15 18 C-14.443125 17.73574219 -13.88625 17.47148437 -13.3125 17.19921875 C-10.12885401 15.54824017 -7.77577908 13.18344704 -5.25 10.6875 C-4.74339844 10.21376953 -4.23679688 9.74003906 -3.71484375 9.25195312 C-1.32102905 6.89362625 -0.06190936 5.53875886 0.328125 2.14453125 C0.21984375 1.43683594 0.1115625 0.72914063 0 0 Z " fill="#B1AAFC" transform="translate(153,183)"/>
<path d="M0 0 C-2.297221 1.74271938 -4.59866729 3.39911152 -7 5 C-7.66 5.66 -8.32 6.32 -9 7 C-11.00349261 6.68834559 -13.00326516 6.35236497 -15 6 C-17.76864953 6.36858988 -17.76864953 6.36858988 -20 7 C-20 6.34 -20 5.68 -20 5 C-17.2328864 3.96794141 -14.46208746 2.94909171 -11.6875 1.9375 C-10.90181641 1.64294922 -10.11613281 1.34839844 -9.30664062 1.04492188 C-8.54931641 0.77099609 -7.79199219 0.49707031 -7.01171875 0.21484375 C-6.31522217 -0.04176025 -5.61872559 -0.29836426 -4.90112305 -0.56274414 C-3 -1 -3 -1 0 0 Z " fill="#DCD9FD" transform="translate(127,167)"/>
<path d="M0 0 C0.33 0 0.66 0 1 0 C1 1.98 1 3.96 1 6 C0.01 6.495 0.01 6.495 -1 7 C-2.13350534 9.01669827 -2.13350534 9.01669827 -3 11 C-3 10.01 -3 9.02 -3 8 C-6.63 8 -10.26 8 -14 8 C-14.33 7.01 -14.66 6.02 -15 5 C-11.04 5 -7.08 5 -3 5 C-2.67 4.34 -2.34 3.68 -2 3 C-1.67 3.33 -1.34 3.66 -1 4 C-0.67 2.68 -0.34 1.36 0 0 Z " fill="#D9D6FE" transform="translate(177,202)"/>
<path d="M0 0 C0.33 0 0.66 0 1 0 C1.66 4.29 2.32 8.58 3 13 C1.68 13.33 0.36 13.66 -1 14 C-1.66 12.35 -2.32 10.7 -3 9 C-2.01 9.33 -1.02 9.66 0 10 C0 6.7 0 3.4 0 0 Z " fill="#CECAFD" transform="translate(133,226)"/>
<path d="M0 0 C0 0.66 0 1.32 0 2 C-3.96 3.98 -3.96 3.98 -8 6 C-8.66 5.34 -9.32 4.68 -10 4 C-8.71086513 3.32845067 -7.41859796 2.66291141 -6.125 2 C-5.40570313 1.62875 -4.68640625 1.2575 -3.9453125 0.875 C-2 0 -2 0 0 0 Z " fill="#D7D4FD" transform="translate(193,203)"/>
<path d="M0 0 C2 3 2 3 2 5 C4.475 5.99 4.475 5.99 7 7 C6.01 7.33 5.02 7.66 4 8 C3.67 8.66 3.34 9.32 3 10 C0.96564469 6.27034861 0 4.33094958 0 0 Z " fill="#CECAFD" transform="translate(102,184)"/>
<path d="M0 0 C-2.35968744 2.09749995 -3.54616994 2.96905704 -6.75 3.1875 C-7.86375 3.0946875 -7.86375 3.0946875 -9 3 C-9 2.34 -9 1.68 -9 1 C-3.375 -1.125 -3.375 -1.125 0 0 Z " fill="#C3BEFD" transform="translate(127,167)"/>
<path d="M0 0 C2.31 0 4.62 0 7 0 C6.42655063 2.86724686 6.1385485 3.8614515 4 6 C3.896875 5.38125 3.79375 4.7625 3.6875 4.125 C3.12474627 1.63473516 3.12474627 1.63473516 0 0 Z " fill="#BFBAFD" transform="translate(317,185)"/>
<path d="M0 0 C0.99 0.495 0.99 0.495 2 1 C1.01 1.495 1.01 1.495 0 2 C0 1.34 0 0.68 0 0 Z " fill="#EEECFE" transform="translate(143,234)"/>
</svg>
